<svg id="图层_1" data-name="图层 1" xmlns="http://www.w3.org/2000/svg" viewBox="0 0 635.73 296.99"><defs><style>.cls-1{fill:#000000;}</style></defs><title>logo</title><path class="cls-1" d="M96.18,2.25H4.93V33.47H83.37A10.41,10.41,0,0,1,93.78,43.87h0A10.41,10.41,0,0,1,83.37,54.28H4.93V85.5H83.37a10.41,10.41,0,0,1,0,20.81H4.93v31.22H96.18a41.61,41.61,0,0,0,32.48-67.64,41.44,41.44,0,0,0,9.14-26h0A41.62,41.62,0,0,0,96.18,2.25Z" transform="translate(-1.27 -2.25)"/><rect class="cls-1" x="588.05" width="47.11" height="135.28"/><polygon class="cls-1" points="486.74 0 439.68 0 439.63 0 381.71 135.28 428.81 135.28 463.21 54.95 497.61 135.28 544.72 135.28 486.79 0 486.74 0"/><polygon class="cls-1" points="285.76 0 238.7 0 238.65 0 180.72 135.28 227.83 135.28 262.23 54.95 296.63 135.28 343.74 135.28 285.81 0 285.76 0"/><polygon class="cls-1" points="140.85 211.88 130.32 178 147.59 178 158.05 211.88 140.85 211.88"/><polygon class="cls-1" points="181.08 295.97 189.27 262.2 204.44 262.2 196.18 295.97 181.08 295.97"/><polygon class="cls-1" points="226.14 262.2 241.05 262.2 246.97 295.97 231.84 295.97 226.14 262.2"/><polygon class="cls-1" points="140.25 249.37 128.23 218.04 144.97 218.04 158.57 249.37 140.25 249.37"/><path class="cls-1" d="M138.24,275.83l3-18.56h17.27l-3.88,25.54c-.47,3.46-3.94,9.28-6.57,11.3a20,20,0,0,1-13.25,4.61h-4.29V284s2.16-.7,2.83-1a10.24,10.24,0,0,0,4.87-7.09" transform="translate(-1.27 -2.25)"/><path class="cls-1" d="M248.18,199.76H225l2.61-5.13h20V180.25H165v95.18c-.21,5.65-5.12,8.75-6.94,9h-.4v14.77h4.84A19.87,19.87,0,0,0,176.09,294,20.09,20.09,0,0,0,182.28,280V194.62H208l-2.35,5.13H185.42v59.56h22.5v16.91c.29,6.34-3.65,8.24-3.65,8.24l-1.06.52v14.25h2.36c7-.52,13.12-5,14.46-6.8A20.1,20.1,0,0,0,225.33,279l-.15-19.65h3.25a19.09,19.09,0,0,0,13.94-5.55c2.79-2.19,5.9-8.64,5.81-13.72Zm-47.07,14.89h30.57v7.69H201.11Zm27.68,27.47c-1.69,1.44-3.33,2.88-6.75,2.82H201.11v-7.7h30.34s-.87,3.36-2.66,4.88" transform="translate(-1.27 -2.25)"/><path class="cls-1" d="M1.27,200.06V186.2h6.8l2.35-5.14H30l-1.31,4.62H61.94v14.38H43.64v5.14H61.43v13.86H43.89l5,4.1a5.24,5.24,0,0,0,4.19,1.54h8.89v14.38H46.77a26.85,26.85,0,0,1-4-.19,4.23,4.23,0,0,1-2-1.09l-7.84-7.44-6.27,7.18c-1,1-3.05,1.54-6,1.54H1.79V225.22H14.08a4.18,4.18,0,0,0,3.4-1.54l4.45-4.61H1.27V205.2h22v-5.14Z" transform="translate(-1.27 -2.25)"/><path class="cls-1" d="M65.61,182.09v56.49H99.27c12.79,0,20.21-11,20.21-19.24V182.09Zm35.57,32.38c-.1,2.65-.6,6.08-3.55,8.05-4.08,2.75-6.44,2.18-6.44,2.18H84.43V197.5h16.74Z" transform="translate(-1.27 -2.25)"/><path class="cls-1" d="M3.84,242.93v55.84H97.59c10.3,0,19.76-8.66,19.75-20.64v-35.2Zm90,40.29c-1.16,1.08-3.63,2-6.45,2.32H22.67v-7.18H96.94a12,12,0,0,1-3.08,4.86m2.92-18.73H22.67v-6.66h74.1Z" transform="translate(-1.27 -2.25)"/><path class="cls-1" d="M264.79,296.13V231.32h-6v-15.1h2a3.21,3.21,0,0,0,2.41-1,12,12,0,0,0,2.09-3.78l6-15.86H259.91V180.65h50.7v14.91H287.82l-4.94,12.66h29.39v57.27c0,3.41-.65,14.4-8.54,21.78-9.42,8.82-18.43,8.87-21.89,8.87Zm31.63-72.94H280.06v58h3.64c1.46,0,6-1.75,8.42-4.12a13.36,13.36,0,0,0,4.3-10.68Zm27.47,23h-7.76V230.61h7.76V195.49h-7.76V179.94h60.38v15.55h-5.2v35.12H376v15.61h-4.69v50.29H355V246.23H340.77V270a28.48,28.48,0,0,1-8.5,19.89c-8.16,7.91-16.14,7.56-16.14,7.56V282.12a24.47,24.47,0,0,0,4.58-4,12.84,12.84,0,0,0,3.18-9.42ZM355,195.49H340.77v35.12H355Z" transform="translate(-1.27 -2.25)"/><path class="cls-1" d="M436.52,184.68l-.1-4.74h22.74l.08,4.74h43.89v23.8H485.8v-9.21H407.58v10h-17V184.68Zm3.59,19.13-3.19,11c-1,3.5-5,9.79-10.58,13.33-3.61,2.26-10.75,5.44-17.09,5.44H390.77V218.91h15.9a16.76,16.76,0,0,0,9.58-2.56c1.93-1.31,4.89-5.17,5.36-7l1.38-5.53Zm-10,36.85h66.6v35.19c0,.47,0,1.31,0,2.53a6,6,0,0,0,.67,2.94q.64,1.12,3.53,1.12h4.55v15.36h-10q-8,0-11.11-3a14.11,14.11,0,0,1-4.07-7,29.84,29.84,0,0,1-.92-6.56V255.31H428.69l-2.76,19.45a29.22,29.22,0,0,1-10.32,17.06c-3.78,3.18-11,6-15.15,6h-7.77V282.44h2.13c3.17,0,7.68-2.55,8.53-3.17s5-4.94,5.52-8.39l2-15.56H390.77V240.66h21.57l.76-4h17.52Zm22.77-36.4h16.63l1.59,5.89a11.16,11.16,0,0,0,4.1,5.45,23,23,0,0,0,9.14,2.87H504.8v14.65H483.1c-5,0-13.13-2.71-17.4-6.43-4.58-4-9-9.75-9.67-12.3Z" transform="translate(-1.27 -2.25)"/><path class="cls-1" d="M519.83,181.45H562.5v42.87a19.91,19.91,0,0,1-1.09,6.36c-.73,2.16-1.68,3.55-2.83,4.19L556,236.54a23.51,23.51,0,0,1,5.07,5.18,10.49,10.49,0,0,1,1.48,5.76V265c.12,4-2.71,14.43-6.72,18.42a33.57,33.57,0,0,1-16,9.4l-4.71.56v5h-15.2Zm15.2,48h7.52a3.77,3.77,0,0,0,3.1-1.47q1.2-1.47,1.19-5.82v-27H535Zm0,13.7v36.66s3.66.18,7.78-3.55c3.11-2.83,3.92-8.21,4-9.74l.07-17.16q0-3.52-1.12-4.87a3.7,3.7,0,0,0-3-1.34Zm30.23,54.25V284.2a29.85,29.85,0,0,0,4-2.8,13.38,13.38,0,0,0,4.64-7.34l5.75-23.13,16.63-.06-7.39,29.49c-7.09,16.09-23.68,17-23.68,17m.83-90.85v-22.2h24.45v-5h18.17v5h26.18v22.14l-15.73.06v-8.7H581.62v8.7Zm.71,19.32-.06-13.69,69.11-.06v13.75Zm.25,8.06H636.3v13.63H622.05v21.6c0,4,2.79,8.71,4.29,10.3,4.27,4.53,10.54,4.25,10.54,4.25l.13,14.4a31.13,31.13,0,0,1-21.08-7.52c-6.64-5.68-9.65-15.66-9.65-18.95V247.54H567.05Z" transform="translate(-1.27 -2.25)"/></svg>